<svg xmlns="http://www.w3.org/2000/svg" width="600" height="400" viewBox="0 0 600 400"><rect width="100%" height="100%" fill="#2dd4bf"/><path fill="#FFFFFF" d="M133.12 200.46H146l-4.93-13.47q-.36-.89-.75-2.12-.39-1.24-.79-2.66-.36 1.42-.75 2.67t-.76 2.17zm10.28-25.2 15.9 40.49h-5.82q-.98 0-1.6-.49-.61-.49-.92-1.22l-3.03-8.26h-16.77l-3.02 8.26q-.23.65-.87 1.18t-1.6.53h-5.88l15.94-40.49zm27.66 0v40.49h-7.56v-40.49zm50.93 0v6.19h-12.2v34.3h-7.54v-34.3h-12.2v-6.19zm9.69 22.82h13.05q0-1.34-.38-2.53t-1.13-2.09q-.76-.89-1.92-1.41t-2.7-.52q-3 0-4.72 1.71t-2.2 4.84m17.64 4.17h-17.78q.17 2.22.79 3.83.61 1.61 1.62 2.66t2.39 1.56q1.39.52 3.07.52t2.9-.39 2.13-.87q.91-.47 1.59-.87.69-.39 1.33-.39.87 0 1.29.65l1.99 2.52q-1.15 1.34-2.58 2.25t-2.98 1.46q-1.55.54-3.16.77-1.61.22-3.13.22-2.99 0-5.57-.99-2.57-1-4.48-2.94-1.9-1.95-2.99-4.82-1.1-2.87-1.1-6.65 0-2.94.96-5.53.95-2.59 2.73-4.51 1.77-1.92 4.34-3.04 2.56-1.12 5.78-1.12 2.71 0 5.01.87t3.95 2.54q1.65 1.66 2.59 4.08.94 2.43.94 5.53 0 1.57-.34 2.12-.34.54-1.29.54m29.21-11.67-1.82 2.52q-.31.39-.61.61-.29.23-.85.23-.53 0-1.04-.32-.5-.33-1.2-.73-.7-.41-1.67-.73-.96-.32-2.39-.32-1.82 0-3.19.66-1.37.65-2.28 1.89-.91 1.23-1.36 2.98t-.45 3.96q0 2.3.49 4.09t1.41 3.01q.93 1.22 2.24 1.85 1.32.63 2.97.63t2.68-.41q1.02-.41 1.72-.9t1.22-.89q.51-.41 1.16-.41.84 0 1.26.65l1.99 2.52q-1.15 1.34-2.5 2.25-1.34.91-2.78 1.46-1.44.54-2.97.77-1.53.22-3.04.22-2.66 0-5.01-.99-2.35-1-4.12-2.9-1.76-1.91-2.78-4.66-1.02-2.76-1.02-6.29 0-3.16.91-5.87.91-2.7 2.67-4.67 1.76-1.98 4.37-3.1 2.6-1.12 5.99-1.12 3.22 0 5.64 1.04t4.36 2.97m11.5-16.44v15.96q1.68-1.57 3.7-2.55t4.73-.98q2.35 0 4.17.8t3.04 2.24 1.85 3.45q.63 2 .63 4.41v18.28h-6.92v-18.28q0-2.64-1.2-4.08t-3.67-1.44q-1.79 0-3.36.81t-2.97 2.21v20.78h-6.91v-41.61zm30.66 14.14.48 2.27q.87-.87 1.83-1.61.97-.74 2.05-1.26t2.31-.81q1.23-.3 2.69-.3 2.35 0 4.17.8t3.04 2.24q1.21 1.44 1.84 3.45.63 2 .63 4.41v18.28h-6.91v-18.28q0-2.64-1.21-4.08-1.2-1.44-3.66-1.44-1.8 0-3.36.81-1.57.81-2.97 2.21v20.78h-6.92v-28.73h4.23q1.34 0 1.76 1.26m38.31-1.71q3.19 0 5.81 1.04t4.48 2.94 2.87 4.65q1.01 2.74 1.01 6.13 0 3.42-1.01 6.16t-2.87 4.68q-1.86 1.93-4.48 2.96-2.62 1.04-5.81 1.04-3.22 0-5.85-1.04-2.64-1.03-4.5-2.96-1.86-1.94-2.88-4.68t-1.02-6.16q0-3.39 1.02-6.13 1.02-2.75 2.88-4.65t4.5-2.94q2.63-1.04 5.85-1.04m0 24.28q3.58 0 5.3-2.41 1.73-2.41 1.73-7.05 0-4.65-1.73-7.09-1.72-2.43-5.3-2.43-3.64 0-5.39 2.45t-1.75 7.07 1.75 7.04 5.39 2.42m19.54-36.71h6.92v41.61h-6.92zm26.55 12.43q3.19 0 5.81 1.04 2.61 1.04 4.48 2.94 1.86 1.9 2.87 4.65 1 2.74 1 6.13 0 3.42-1 6.16-1.01 2.74-2.87 4.68-1.87 1.93-4.48 2.96-2.62 1.04-5.81 1.04-3.22 0-5.86-1.04-2.63-1.03-4.49-2.96-1.86-1.94-2.88-4.68-1.03-2.74-1.03-6.16 0-3.39 1.03-6.13 1.02-2.75 2.88-4.65t4.49-2.94q2.64-1.04 5.86-1.04m0 24.28q3.58 0 5.3-2.41t1.72-7.05q0-4.65-1.72-7.09-1.72-2.43-5.3-2.43-3.64 0-5.39 2.45t-1.75 7.07 1.75 7.04 5.39 2.42m29.96-10.16q1.28 0 2.24-.35.95-.35 1.58-.97t.95-1.48q.32-.87.32-1.91 0-2.13-1.27-3.37-1.28-1.25-3.82-1.25-2.55 0-3.83 1.25-1.27 1.24-1.27 3.37 0 1.01.32 1.88t.95 1.5 1.6.98 2.23.35m7.81 16.35q0-.84-.51-1.37-.5-.54-1.37-.83t-2.03-.43-2.46-.21-2.69-.13-2.7-.22q-1.15.64-1.86 1.51-.72.87-.72 2.01 0 .76.38 1.42t1.2 1.13q.83.48 2.15.74 1.31.27 3.22.27 1.93 0 3.33-.29 1.4-.3 2.31-.82.91-.51 1.33-1.23.42-.71.42-1.55M441.49 188h8.26v2.58q0 1.23-1.49 1.51l-2.57.48q.58 1.48.58 3.24 0 2.13-.85 3.85-.85 1.73-2.37 2.93-1.51 1.2-3.57 1.86-2.05.66-4.43.66-.84 0-1.63-.08-.78-.09-1.54-.23-1.34.81-1.34 1.82 0 .87.8 1.28.79.4 2.11.57t3 .21 3.44.18 3.44.49 3 1.11q1.32.75 2.11 2.06.8 1.3.8 3.34 0 1.91-.94 3.7-.93 1.79-2.71 3.19t-4.37 2.25q-2.59.86-5.89.86-3.25 0-5.66-.63t-4-1.68q-1.6-1.05-2.38-2.42-.79-1.38-.79-2.86 0-2.02 1.22-3.37 1.22-1.36 3.35-2.17-1.15-.59-1.82-1.57-.68-.98-.68-2.58 0-.64.24-1.33.24-.68.7-1.36.46-.67 1.16-1.27t1.66-1.08q-2.19-1.17-3.43-3.13-1.25-1.96-1.25-4.6 0-2.12.85-3.85.86-1.72 2.38-2.94 1.53-1.21 3.62-1.86 2.08-.64 4.55-.64 1.84 0 3.47.38 1.62.37 2.97 1.1m33.18-.98h5.54l-15.65 36.63q-.31.72-.8 1.1t-1.5.38h-5.15l5.38-11.54-11.62-26.57h6.07q.81 0 1.28.39.46.4.68.9l6.11 14.9q.3.75.51 1.51.21.75.41 1.54.25-.79.5-1.56.26-.77.56-1.52l5.77-14.87q.23-.56.74-.92.52-.37 1.17-.37"/></svg> 